<?xml version="1.0" standalone="no"?><!DOCTYPE svg PUBLIC "-//W3C//DTD SVG 1.1//EN" "http://www.w3.org/Graphics/SVG/1.1/DTD/svg11.dtd"><svg t="1771782096307" class="icon" viewBox="0 0 1024 1024" version="1.1" xmlns="http://www.w3.org/2000/svg" p-id="12618" xmlns:xlink="http://www.w3.org/1999/xlink" width="512" height="512"><path d="M881.025384 759.969004a21.336 21.336 0 0 1-3.290255-42.410699c0.133317-0.021331 0.7999-0.149315 1.695788-0.335958-36.987377-84.698746-123.611215-162.497021-317.213682-162.497021-59.373912 0-126.586843 12.414448-195.484898 36.032829-26.631338-56.366288-77.856935-89.092863-127.802691-79.366079-31.665375 6.148565-57.89143 27.91651-73.836104 61.325668-14.931467 31.228096-19.069616 69.367329-11.689205 107.405241 1.077199 5.497979 2.378369 10.9373 3.892846 16.269966C64.183489 760.715577 9.070378 828.899054 9.070378 880.476607c0 126.128234 222.782819 143.523393 463.52606 143.523393 232.003 0 432.361955 0 432.361954-174.628838 0-27.265925-2.751656-59.096613-11.395908-91.551223a137.582802 137.582802 0 0 1-9.214849 1.89843 22.450527 22.450527 0 0 1-3.322251 0.250635zM201.046381 892.592426c-35.286256 0-63.992001-28.700412-63.992001-63.992001s28.705745-63.992001 63.992001-63.992001 63.992001 28.711078 63.992001 63.992001-28.705745 63.992001-63.992001 63.992001z" fill="#FBFCED" p-id="12619"></path><path d="M201.046381 764.613757c-35.286256 0-63.992001 28.705745-63.992001 63.992001s28.705745 63.992001 63.992001 63.992001 63.992001-28.705745 63.992001-63.992001-28.705745-63.992001-63.992001-63.992001z" fill="#47484A" p-id="12620"></path><path d="M897.023384 398.883473c-93.044369-105.085531-126.298879-195.991501-96.179977-262.900471 29.329667-65.138524 112.209974-93.321668 148.013498-93.321668a21.330667 21.330667 0 1 0 0-42.661334c-53.865267 0-150.519852 37.637962-186.909969 118.465192-26.172728 58.115402-29.521643 158.85481 103.14444 308.708078 85.402658 96.489272 120.848894 174.687497 102.472524 226.158397-17.01654 47.706037-77.46765 61.768279-88.132983 63.89068a45.780944 45.780944 0 0 1-1.701121 0.330626 21.336 21.336 0 0 0 6.612507 42.165396 137.582802 137.582802 0 0 0 9.225513-1.89843c24.604924-5.812607 91.433904-26.993959 114.065742-89.839437 24.487606-67.991501-12.729076-158.524184-110.610174-269.091696z" fill="#FDFDF1" p-id="12621"></path></svg>